<svg id="d73aba45-bb3e-4f94-9260-b644a9d75b00" data-name="Layer 2" xmlns="http://www.w3.org/2000/svg" width="817.96745" height="173.48798" viewBox="0 0 817.96745 173.48798">
  <title>Untitled-2</title>
  <path d="M502.13641,117.12459a61.87554,61.87554,0,1,0,118.14313,0Z" transform="translate(-42.68151 -67.50673)" style="fill: #02bfe7"/>
  <path d="M283.34424,135.12459c-.00116.15582-.01178.30933-.01178.46545a61.87552,61.87552,0,1,0,123.751,0c0-.15613-.01062-.30963-.01178-.46545Z" transform="translate(-42.68151 -67.50673)" style="fill: #02bfe7"/>
  <g>
    <path d="M281.06659,233.97908a2.95254,2.95254,0,0,1-1.11328,2.4375,4.83545,4.83545,0,0,1-3.09766.89063,7.27933,7.27933,0,0,1-3.23437-.6875v-2.25a13.30148,13.30148,0,0,0,1.957.72656,5.795,5.795,0,0,0,1.46484.21094,2.08344,2.08344,0,0,0,1.22266-.30469,1.041,1.041,0,0,0,.42578-.90625,1.00183,1.00183,0,0,0-.1875-.59766,2.08713,2.08713,0,0,0-.55078-.50391,14.26166,14.26166,0,0,0-1.48047-.77344,7.01409,7.01409,0,0,1-1.57031-.94531,3.54056,3.54056,0,0,1-.83594-1.05469,3.01559,3.01559,0,0,1-.3125-1.40625,2.95245,2.95245,0,0,1,1.02734-2.38281,4.2689,4.2689,0,0,1,2.83984-.86719,6.70608,6.70608,0,0,1,1.69922.21094,11.73288,11.73288,0,0,1,1.69141.59375l-.78125,1.88281a11.38289,11.38289,0,0,0-1.51172-.52344,4.88009,4.88009,0,0,0-1.17578-.14844,1.55642,1.55642,0,0,0-1.05469.32031,1.056,1.056,0,0,0-.36719.83594,1.0374,1.0374,0,0,0,.14844.55859,1.628,1.628,0,0,0,.47266.46094,14.60868,14.60868,0,0,0,1.53516.80078,6.11638,6.11638,0,0,1,2.19531,1.53516A2.99679,2.99679,0,0,1,281.06659,233.97908Z" transform="translate(-42.68151 -67.50673)" style="fill: #02bfe7"/>
    <path d="M289.53729,237.151l-.32031-1.11719h-.125a2.5198,2.5198,0,0,1-1.08594.94141,3.70383,3.70383,0,0,1-1.60156.332,3.0476,3.0476,0,0,1-2.32031-.82422,3.314,3.314,0,0,1-.78125-2.37109v-5.69531h2.38281v5.10156a2.44678,2.44678,0,0,0,.33594,1.418,1.22028,1.22028,0,0,0,1.07031.47266,1.60986,1.60986,0,0,0,1.44531-.668,4.14269,4.14269,0,0,0,.44531-2.21484v-4.10937h2.38281V237.151Z" transform="translate(-42.68151 -67.50673)" style="fill: #02bfe7"/>
    <path d="M299.12421,228.25252a2.82485,2.82485,0,0,1,2.42188,1.207,5.54,5.54,0,0,1,.875,3.30859,5.44246,5.44246,0,0,1-.90234,3.35156,3.15089,3.15089,0,0,1-4.87109.07031h-.16406l-.39844.96094h-1.82031V224.99471h2.38281v2.82813q0,.53906-.09375,1.72656h.09375A2.75755,2.75755,0,0,1,299.12421,228.25252Zm-.76562,1.90625a1.50288,1.50288,0,0,0-1.28906.543,3.12414,3.12414,0,0,0-.42187,1.793v.25781a3.6827,3.6827,0,0,0,.418,2.01563,1.491,1.491,0,0,0,1.32422.60938,1.3298,1.3298,0,0,0,1.168-.67578,3.65708,3.65708,0,0,0,.43359-1.96484,3.46261,3.46261,0,0,0-.4375-1.93359A1.37246,1.37246,0,0,0,298.35858,230.15877Z" transform="translate(-42.68151 -67.50673)" style="fill: #02bfe7"/>
    <path d="M312.61053,237.151h-2.38281V232.0494a2.57124,2.57124,0,0,0-.31641-1.418,1.11216,1.11216,0,0,0-.99609-.47266,1.44246,1.44246,0,0,0-1.32812.67188,4.40345,4.40345,0,0,0-.41406,2.21094V237.151h-2.38281v-8.73437h1.82031l.32031,1.11719h.13281a2.42084,2.42084,0,0,1,1.01563-.94141,3.29576,3.29576,0,0,1,1.52344-.33984,2.74353,2.74353,0,0,1,2.65625,1.28125h.21094a2.35609,2.35609,0,0,1,1.03516-.94531,3.45663,3.45663,0,0,1,1.543-.33594,3.0462,3.0462,0,0,1,2.24609.76172,3.34432,3.34432,0,0,1,.76172,2.44141V237.151h-2.39062V232.0494a2.57124,2.57124,0,0,0-.31641-1.418,1.11216,1.11216,0,0,0-.99609-.47266,1.4857,1.4857,0,0,0-1.30859.625,3.54706,3.54706,0,0,0-.43359,1.98438Z" transform="translate(-42.68151 -67.50673)" style="fill: #02bfe7"/>
    <path d="M320.8,226.15877q0-1.16455,1.29688-1.16406,1.29639,0,1.29688,1.16406a1.13609,1.13609,0,0,1-.32422.86328,1.36344,1.36344,0,0,1-.97266.30859Q320.799,227.33065,320.8,226.15877Zm2.48438,10.99219h-2.38281v-8.73437h2.38281Z" transform="translate(-42.68151 -67.50673)" style="fill: #02bfe7"/>
    <path d="M329.86346,235.40877a5.15069,5.15069,0,0,0,1.5-.27344v1.77344a5.34929,5.34929,0,0,1-2.1875.39844,2.678,2.678,0,0,1-2.082-.72266,3.146,3.146,0,0,1-.65234-2.168v-4.21094H325.301v-1.00781l1.3125-.79687.6875-1.84375h1.52344v1.85938h2.44531v1.78906H328.8244v4.21094a.92829.92829,0,0,0,.28516.75A1.12739,1.12739,0,0,0,329.86346,235.40877Z" transform="translate(-42.68151 -67.50673)" style="fill: #02bfe7"/>
    <path d="M345.01483,233.97908a2.95254,2.95254,0,0,1-1.11328,2.4375,4.83545,4.83545,0,0,1-3.09766.89063,7.27933,7.27933,0,0,1-3.23437-.6875v-2.25a13.30148,13.30148,0,0,0,1.957.72656,5.795,5.795,0,0,0,1.46484.21094,2.08344,2.08344,0,0,0,1.22266-.30469,1.041,1.041,0,0,0,.42578-.90625,1.00183,1.00183,0,0,0-.1875-.59766,2.08713,2.08713,0,0,0-.55078-.50391,14.26166,14.26166,0,0,0-1.48047-.77344,7.01409,7.01409,0,0,1-1.57031-.94531,3.54056,3.54056,0,0,1-.83594-1.05469,3.01559,3.01559,0,0,1-.3125-1.40625,2.95245,2.95245,0,0,1,1.02734-2.38281,4.2689,4.2689,0,0,1,2.83984-.86719,6.70608,6.70608,0,0,1,1.69922.21094,11.73288,11.73288,0,0,1,1.69141.59375l-.78125,1.88281a11.38289,11.38289,0,0,0-1.51172-.52344,4.88009,4.88009,0,0,0-1.17578-.14844,1.55642,1.55642,0,0,0-1.05469.32031,1.056,1.056,0,0,0-.36719.83594,1.0374,1.0374,0,0,0,.14844.55859,1.628,1.628,0,0,0,.47266.46094,14.60868,14.60868,0,0,0,1.53516.80078,6.11638,6.11638,0,0,1,2.19531,1.53516A2.99679,2.99679,0,0,1,345.01483,233.97908Z" transform="translate(-42.68151 -67.50673)" style="fill: #02bfe7"/>
    <path d="M355.23553,232.76815a4.693,4.693,0,0,1-1.125,3.33594,4.07981,4.07981,0,0,1-3.13281,1.20313,4.38157,4.38157,0,0,1-2.21875-.55078,3.665,3.665,0,0,1-1.47656-1.582,5.31508,5.31508,0,0,1-.51562-2.40625A4.66739,4.66739,0,0,1,347.884,229.44a4.10247,4.10247,0,0,1,3.14063-1.1875,4.4097,4.4097,0,0,1,2.21875.54688,3.64657,3.64657,0,0,1,1.47656,1.57031A5.26681,5.26681,0,0,1,355.23553,232.76815Zm-6.03906,0a3.66293,3.66293,0,0,0,.42578,1.96094,1.52377,1.52377,0,0,0,1.38672.66406,1.49712,1.49712,0,0,0,1.37109-.66016,3.72172,3.72172,0,0,0,.418-1.96484,3.60929,3.60929,0,0,0-.42187-1.94531,1.7938,1.7938,0,0,0-2.75781-.00391A3.60383,3.60383,0,0,0,349.19647,232.76815Z" transform="translate(-42.68151 -67.50673)" style="fill: #02bfe7"/>
    <path d="M365.425,237.151h-2.38281V232.0494a2.57124,2.57124,0,0,0-.31641-1.418,1.11216,1.11216,0,0,0-.99609-.47266,1.44142,1.44142,0,0,0-1.32812.67188,4.40345,4.40345,0,0,0-.41406,2.21094V237.151h-2.38281v-8.73437H359.425l.32031,1.11719h.13281a2.41511,2.41511,0,0,1,1.01563-.94141,3.29576,3.29576,0,0,1,1.52344-.33984,2.74449,2.74449,0,0,1,2.65625,1.28125h.21094a2.35609,2.35609,0,0,1,1.03516-.94531,3.45367,3.45367,0,0,1,1.543-.33594,3.0462,3.0462,0,0,1,2.24609.76172,3.34432,3.34432,0,0,1,.76172,2.44141V237.151h-2.39062V232.0494a2.57124,2.57124,0,0,0-.31641-1.418,1.11216,1.11216,0,0,0-.99609-.47266,1.48456,1.48456,0,0,0-1.30859.625,3.54706,3.54706,0,0,0-.43359,1.98438Z" transform="translate(-42.68151 -67.50673)" style="fill: #02bfe7"/>
    <path d="M377.66815,237.30721a4.50733,4.50733,0,0,1-3.29687-1.16406,4.40679,4.40679,0,0,1-1.1875-3.29687,4.84923,4.84923,0,0,1,1.09766-3.39453,3.90643,3.90643,0,0,1,3.03516-1.19922,3.84709,3.84709,0,0,1,2.88281,1.05469,3.99061,3.99061,0,0,1,1.03125,2.91406v1.15625h-5.63281a2.29507,2.29507,0,0,0,.60156,1.58594,2.11841,2.11841,0,0,0,1.57813.57031,6.54929,6.54929,0,0,0,1.49219-.16406,7.49489,7.49489,0,0,0,1.46875-.52344V236.69a5.6194,5.6194,0,0,1-1.33594.46484A8.41868,8.41868,0,0,1,377.66815,237.30721Zm-.33594-7.35937a1.51137,1.51137,0,0,0-1.1875.48047,2.2269,2.2269,0,0,0-.49219,1.36328h3.34375a1.98728,1.98728,0,0,0-.46094-1.36328A1.56114,1.56114,0,0,0,377.33221,229.94783Z" transform="translate(-42.68151 -67.50673)" style="fill: #02bfe7"/>
    <path d="M387.24823,235.40877a5.16168,5.16168,0,0,0,1.5-.27344v1.77344a5.34929,5.34929,0,0,1-2.1875.39844,2.678,2.678,0,0,1-2.082-.72266,3.14112,3.14112,0,0,1-.65234-2.168v-4.21094h-1.14062v-1.00781l1.3125-.79687.6875-1.84375h1.52344v1.85938h2.44531v1.78906h-2.44531v4.21094a.92829.92829,0,0,0,.28516.75A1.12562,1.12562,0,0,0,387.24823,235.40877Z" transform="translate(-42.68151 -67.50673)" style="fill: #02bfe7"/>
    <path d="M398.97577,237.151H396.593V232.0494q0-1.89111-1.40625-1.89062a1.59882,1.59882,0,0,0-1.44531.67969,4.15114,4.15114,0,0,0-.44531,2.20313V237.151h-2.38281V224.99471h2.38281v2.47656q0,.28857-.05469,1.35938l-.05469.70313h.125a2.7596,2.7596,0,0,1,2.53125-1.28125,3.09544,3.09544,0,0,1,2.33594.82813,3.28943,3.28943,0,0,1,.79688,2.375Z" transform="translate(-42.68151 -67.50673)" style="fill: #02bfe7"/>
    <path d="M401.72772,226.15877q0-1.16455,1.29688-1.16406,1.29639,0,1.29688,1.16406a1.13609,1.13609,0,0,1-.32422.86328,1.36024,1.36024,0,0,1-.97266.30859Q401.72821,227.33065,401.72772,226.15877ZM404.2121,237.151h-2.38281v-8.73437h2.38281Z" transform="translate(-42.68151 -67.50673)" style="fill: #02bfe7"/>
    <path d="M415.175,237.151h-2.38281V232.0494a2.45435,2.45435,0,0,0-.33594-1.418,1.22259,1.22259,0,0,0-1.07031-.47266,1.60876,1.60876,0,0,0-1.44531.668,4.14269,4.14269,0,0,0-.44531,2.21484V237.151h-2.38281v-8.73437h1.82031l.32031,1.11719h.13281a2.51246,2.51246,0,0,1,1.09766-.957,3.74159,3.74159,0,0,1,1.58984-.32422,3.05377,3.05377,0,0,1,2.3125.82422,3.31147,3.31147,0,0,1,.78906,2.37891Z" transform="translate(-42.68151 -67.50673)" style="fill: #02bfe7"/>
    <path d="M425.62909,228.41658v1.21094l-1.36719.35156a2.38333,2.38333,0,0,1,.375,1.3125,2.65069,2.65069,0,0,1-.98047,2.19141,4.2466,4.2466,0,0,1-2.72266.78516l-.42969-.02344-.35156-.03906a.791.791,0,0,0-.36719.625q0,.51563,1.3125.51563h1.48438a3.3893,3.3893,0,0,1,2.19141.61719,2.2047,2.2047,0,0,1,.75391,1.8125,2.68831,2.68831,0,0,1-1.27734,2.375,6.65234,6.65234,0,0,1-3.668.84375,5.076,5.076,0,0,1-2.793-.63672,2.02139,2.02139,0,0,1-.96484-1.78516,1.86881,1.86881,0,0,1,.49219-1.32031,2.79348,2.79348,0,0,1,1.44531-.75781,1.59477,1.59477,0,0,1-.64062-.51172,1.25757,1.25757,0,0,1,.01563-1.58594,3.342,3.342,0,0,1,.83594-.65234,2.34932,2.34932,0,0,1-1.08984-.95312,2.89767,2.89767,0,0,1-.40234-1.54687,2.72651,2.72651,0,0,1,.92969-2.21094,4.02181,4.02181,0,0,1,2.65625-.78125,6.85392,6.85392,0,0,1,.87109.06641c.33594.04395.55078.07715.64453.09766Zm-6.74219,9.96875a.863.863,0,0,0,.47266.77344,2.60233,2.60233,0,0,0,1.32422.28125,4.6896,4.6896,0,0,0,2.00781-.35156,1.07148,1.07148,0,0,0,.72656-.96094.68066.68066,0,0,0-.42969-.67969,3.51882,3.51882,0,0,0-1.32812-.1875H420.426a1.86621,1.86621,0,0,0-1.09766.30859A.95246.95246,0,0,0,418.8869,238.38533Zm.86719-7.10937a1.78163,1.78163,0,0,0,.32422,1.125,1.1767,1.1767,0,0,0,.98828.41406,1.1517,1.1517,0,0,0,.98438-.41406,1.82942,1.82942,0,0,0,.3125-1.125q0-1.57764-1.29687-1.57812Q419.75409,229.69783,419.75409,231.276Z" transform="translate(-42.68151 -67.50673)" style="fill: #02bfe7"/>
  </g>
  <g>
    <path d="M68.19354,231.33065a5.62508,5.62508,0,0,1-1.60547,4.32031,6.54753,6.54753,0,0,1-4.63672,1.5H58.717V225.72908h3.58594a6.03913,6.03913,0,0,1,4.34375,1.47656A5.43134,5.43134,0,0,1,68.19354,231.33065Zm-2.51562.0625q0-3.67969-3.25-3.67969H61.13885v7.4375h1.03906Q65.67743,235.151,65.67792,231.39315Z" transform="translate(-42.68151 -67.50673)" style="fill: #cd2026"/>
    <path d="M78.71063,232.76815a4.693,4.693,0,0,1-1.125,3.33594,4.08054,4.08054,0,0,1-3.13281,1.20313,4.38157,4.38157,0,0,1-2.21875-.55078,3.665,3.665,0,0,1-1.47656-1.582,5.31508,5.31508,0,0,1-.51562-2.40625A4.6674,4.6674,0,0,1,71.35907,229.44a4.101,4.101,0,0,1,3.14063-1.1875,4.411,4.411,0,0,1,2.21875.54688,3.64657,3.64657,0,0,1,1.47656,1.57031A5.26681,5.26681,0,0,1,78.71063,232.76815Zm-6.03906,0a3.66293,3.66293,0,0,0,.42578,1.96094,1.52324,1.52324,0,0,0,1.38672.66406,1.49818,1.49818,0,0,0,1.37109-.66016,3.72172,3.72172,0,0,0,.418-1.96484,3.60929,3.60929,0,0,0-.42187-1.94531,1.7938,1.7938,0,0,0-2.75781-.00391A3.60383,3.60383,0,0,0,72.67157,232.76815Z" transform="translate(-42.68151 -67.50673)" style="fill: #cd2026"/>
    <path d="M89.14178,237.151H86.759V232.0494a2.45435,2.45435,0,0,0-.33594-1.418,1.222,1.222,0,0,0-1.07031-.47266,1.60876,1.60876,0,0,0-1.44531.668,4.14269,4.14269,0,0,0-.44531,2.21484V237.151H81.07928v-8.73437H82.8996l.32031,1.11719h.13281a2.51515,2.51515,0,0,1,1.09766-.957,3.74159,3.74159,0,0,1,1.58984-.32422,3.05377,3.05377,0,0,1,2.3125.82422,3.30932,3.30932,0,0,1,.78906,2.37891Z" transform="translate(-42.68151 -67.50673)" style="fill: #cd2026"/>
    <path d="M93.91717,225.72908l.10938.17188a24.01031,24.01031,0,0,1-1.375,3.74219H90.94061q.53906-2.313.78125-3.91406Z" transform="translate(-42.68151 -67.50673)" style="fill: #cd2026"/>
    <path d="M99.54364,235.40877a5.15618,5.15618,0,0,0,1.5-.27344v1.77344a5.34929,5.34929,0,0,1-2.1875.39844,2.678,2.678,0,0,1-2.082-.72266,3.14355,3.14355,0,0,1-.65234-2.168v-4.21094H94.98114v-1.00781l1.3125-.79687.6875-1.84375h1.52344v1.85938h2.44531v1.78906H98.50458v4.21094a.92829.92829,0,0,0,.28516.75A1.1265,1.1265,0,0,0,99.54364,235.40877Z" transform="translate(-42.68151 -67.50673)" style="fill: #cd2026"/>
    <path d="M115.84344,229.29158a3.49152,3.49152,0,0,1-1.15234,2.82031,4.92753,4.92753,0,0,1-3.27734.97656h-1.03906v4.0625h-2.42187V225.72908h3.64844a4.85183,4.85183,0,0,1,3.16016.89453A3.26215,3.26215,0,0,1,115.84344,229.29158Zm-5.46875,1.8125h.79688a2.65684,2.65684,0,0,0,1.67188-.44141,1.54487,1.54487,0,0,0,.55469-1.28516,1.58513,1.58513,0,0,0-.46484-1.25781,2.18075,2.18075,0,0,0-1.457-.40625h-1.10156Z" transform="translate(-42.68151 -67.50673)" style="fill: #cd2026"/>
    <path d="M123.759,237.151l-.46094-1.1875h-.0625a3.52693,3.52693,0,0,1-1.23828,1.05078,4.00331,4.00331,0,0,1-1.66016.293,2.68218,2.68218,0,0,1-1.98047-.71875,2.75958,2.75958,0,0,1-.72266-2.04687,2.30557,2.30557,0,0,1,.97266-2.05078,5.632,5.632,0,0,1,2.93359-.73047l1.51563-.04687v-.38281a1.18778,1.18778,0,0,0-1.35937-1.32812,6.19208,6.19208,0,0,0-2.46094.63281l-.78906-1.60937a7.09541,7.09541,0,0,1,3.34375-.78906,4.16325,4.16325,0,0,1,2.69531.76563,2.82951,2.82951,0,0,1,.9375,2.32813V237.151Zm-.70312-4.04687-.92187.03125a2.94514,2.94514,0,0,0-1.54687.375,1.17746,1.17746,0,0,0-.50781,1.04688q0,1.00781,1.15625,1.00781a1.83364,1.83364,0,0,0,1.32422-.47656,1.67352,1.67352,0,0,0,.49609-1.26562Z" transform="translate(-42.68151 -67.50673)" style="fill: #cd2026"/>
    <path d="M133.15155,228.25252a3.846,3.846,0,0,1,.80469.07031l-.17969,2.23438a2.74588,2.74588,0,0,0-.70312-.07812,2.526,2.526,0,0,0-1.77734.58594,2.117,2.117,0,0,0-.63672,1.64063V237.151h-2.38281v-8.73437h1.80469l.35156,1.46875H130.55a3.28578,3.28578,0,0,1,1.09766-1.18359A2.70319,2.70319,0,0,1,133.15155,228.25252Z" transform="translate(-42.68151 -67.50673)" style="fill: #cd2026"/>
    <path d="M139.62176,235.40877a5.15618,5.15618,0,0,0,1.5-.27344v1.77344a5.34929,5.34929,0,0,1-2.1875.39844,2.678,2.678,0,0,1-2.082-.72266,3.14355,3.14355,0,0,1-.65234-2.168v-4.21094h-1.14062v-1.00781l1.3125-.79687.6875-1.84375h1.52344v1.85938H141.028v1.78906H138.5827v4.21094a.92829.92829,0,0,0,.28516.75A1.1265,1.1265,0,0,0,139.62176,235.40877Z" transform="translate(-42.68151 -67.50673)" style="fill: #cd2026"/>
    <path d="M143.18573,226.15877q0-1.16455,1.29688-1.16406,1.29639,0,1.29688,1.16406a1.13609,1.13609,0,0,1-.32422.86328,1.36184,1.36184,0,0,1-.97266.30859Q143.18549,227.33065,143.18573,226.15877ZM145.6701,237.151h-2.38281v-8.73437h2.38281Z" transform="translate(-42.68151 -67.50673)" style="fill: #cd2026"/>
    <path d="M152.11688,237.30721q-4.07812,0-4.07812-4.47656a4.77484,4.77484,0,0,1,1.10938-3.40234,4.1597,4.1597,0,0,1,3.17969-1.17578,6.06711,6.06711,0,0,1,2.71875.59375l-.70312,1.84375q-.5625-.22705-1.04687-.37109a3.36434,3.36434,0,0,0-.96875-.14453q-1.85962,0-1.85937,2.64063,0,2.562,1.85938,2.5625a4.25129,4.25129,0,0,0,1.27344-.18359,4.57647,4.57647,0,0,0,1.17188-.57422v2.03906a3.83752,3.83752,0,0,1-1.168.50781A6.5721,6.5721,0,0,1,152.11688,237.30721Z" transform="translate(-42.68151 -67.50673)" style="fill: #cd2026"/>
    <path d="M157.09491,226.15877q0-1.16455,1.29688-1.16406,1.29639,0,1.29688,1.16406a1.13609,1.13609,0,0,1-.32422.86328,1.36184,1.36184,0,0,1-.97266.30859Q157.09466,227.33065,157.09491,226.15877Zm2.48438,10.99219h-2.38281v-8.73437h2.38281Z" transform="translate(-42.68151 -67.50673)" style="fill: #cd2026"/>
    <path d="M167.27655,237.30721a2.895,2.895,0,0,1-2.41406-1.11719h-.125q.12451,1.09424.125,1.26563v3.53906h-2.38281V228.41658h1.9375l.33594,1.13281h.10938a2.757,2.757,0,0,1,2.47656-1.29687,2.83455,2.83455,0,0,1,2.42188,1.19531,5.53,5.53,0,0,1,.875,3.32031,6.55507,6.55507,0,0,1-.41016,2.42969,3.41033,3.41033,0,0,1-1.168,1.57031A2.99368,2.99368,0,0,1,167.27655,237.30721Zm-.70312-7.14844a1.50288,1.50288,0,0,0-1.28906.543,3.11639,3.11639,0,0,0-.42187,1.793v.25781a3.67831,3.67831,0,0,0,.418,2.01563,1.491,1.491,0,0,0,1.32422.60938q1.60107,0,1.60156-2.64062a3.77416,3.77416,0,0,0-.39453-1.93359A1.34677,1.34677,0,0,0,166.57342,230.15877Z" transform="translate(-42.68151 -67.50673)" style="fill: #cd2026"/>
    <path d="M178.55145,237.151l-.46094-1.1875h-.0625a3.52693,3.52693,0,0,1-1.23828,1.05078,4.00331,4.00331,0,0,1-1.66016.293,2.68218,2.68218,0,0,1-1.98047-.71875,2.75958,2.75958,0,0,1-.72266-2.04687,2.30557,2.30557,0,0,1,.97266-2.05078,5.632,5.632,0,0,1,2.93359-.73047l1.51563-.04687v-.38281a1.18778,1.18778,0,0,0-1.35937-1.32812,6.19208,6.19208,0,0,0-2.46094.63281L173.239,229.026a7.09541,7.09541,0,0,1,3.34375-.78906,4.16325,4.16325,0,0,1,2.69531.76563,2.82951,2.82951,0,0,1,.9375,2.32813V237.151Zm-.70312-4.04687-.92187.03125a2.94514,2.94514,0,0,0-1.54687.375,1.17746,1.17746,0,0,0-.50781,1.04688q0,1.00781,1.15625,1.00781a1.83364,1.83364,0,0,0,1.32422-.47656,1.67352,1.67352,0,0,0,.49609-1.26562Z" transform="translate(-42.68151 -67.50673)" style="fill: #cd2026"/>
    <path d="M186.74823,235.40877a5.15618,5.15618,0,0,0,1.5-.27344v1.77344a5.34929,5.34929,0,0,1-2.1875.39844,2.678,2.678,0,0,1-2.082-.72266,3.14355,3.14355,0,0,1-.65234-2.168v-4.21094h-1.14062v-1.00781l1.3125-.79687.6875-1.84375h1.52344v1.85938h2.44531v1.78906h-2.44531v4.21094a.92829.92829,0,0,0,.28516.75A1.1265,1.1265,0,0,0,186.74823,235.40877Z" transform="translate(-42.68151 -67.50673)" style="fill: #cd2026"/>
    <path d="M194.36688,237.30721a4.50656,4.50656,0,0,1-3.29687-1.16406,4.40679,4.40679,0,0,1-1.1875-3.29687,4.84693,4.84693,0,0,1,1.09766-3.39453,3.90643,3.90643,0,0,1,3.03516-1.19922,3.84709,3.84709,0,0,1,2.88281,1.05469,3.99061,3.99061,0,0,1,1.03125,2.91406v1.15625h-5.63281a2.29283,2.29283,0,0,0,.60156,1.58594,2.11765,2.11765,0,0,0,1.57813.57031,6.55238,6.55238,0,0,0,1.49219-.16406,7.49489,7.49489,0,0,0,1.46875-.52344V236.69a5.6194,5.6194,0,0,1-1.33594.46484A8.42528,8.42528,0,0,1,194.36688,237.30721Zm-.33594-7.35937a1.51067,1.51067,0,0,0-1.1875.48047,2.221,2.221,0,0,0-.49219,1.36328H195.695a1.98728,1.98728,0,0,0-.46094-1.36328A1.56114,1.56114,0,0,0,194.03094,229.94783Z" transform="translate(-42.68151 -67.50673)" style="fill: #cd2026"/>
  </g>
  <g>
    <path d="M487.1828,233.97908a2.95254,2.95254,0,0,1-1.11328,2.4375,4.83545,4.83545,0,0,1-3.09766.89063,7.27933,7.27933,0,0,1-3.23437-.6875v-2.25a13.30148,13.30148,0,0,0,1.957.72656,5.795,5.795,0,0,0,1.46484.21094,2.08344,2.08344,0,0,0,1.22266-.30469,1.041,1.041,0,0,0,.42578-.90625,1.00183,1.00183,0,0,0-.1875-.59766,2.08713,2.08713,0,0,0-.55078-.50391,14.26167,14.26167,0,0,0-1.48047-.77344,7.01409,7.01409,0,0,1-1.57031-.94531,3.54056,3.54056,0,0,1-.83594-1.05469,3.01559,3.01559,0,0,1-.3125-1.40625,2.95245,2.95245,0,0,1,1.02734-2.38281,4.2689,4.2689,0,0,1,2.83984-.86719,6.70608,6.70608,0,0,1,1.69922.21094,11.73288,11.73288,0,0,1,1.69141.59375l-.78125,1.88281a11.38288,11.38288,0,0,0-1.51172-.52344,4.88009,4.88009,0,0,0-1.17578-.14844,1.55642,1.55642,0,0,0-1.05469.32031,1.056,1.056,0,0,0-.36719.83594,1.0374,1.0374,0,0,0,.14844.55859,1.628,1.628,0,0,0,.47266.46094,14.60868,14.60868,0,0,0,1.53516.80078,6.11638,6.11638,0,0,1,2.19531,1.53516A2.99679,2.99679,0,0,1,487.1828,233.97908Z" transform="translate(-42.68151 -67.50673)" style="fill: #02bfe7"/>
    <path d="M495.6535,237.151l-.32031-1.11719h-.125a2.5198,2.5198,0,0,1-1.08594.94141,3.70383,3.70383,0,0,1-1.60156.332,3.0476,3.0476,0,0,1-2.32031-.82422,3.314,3.314,0,0,1-.78125-2.37109v-5.69531h2.38281v5.10156a2.44678,2.44678,0,0,0,.33594,1.418,1.22028,1.22028,0,0,0,1.07031.47266,1.60986,1.60986,0,0,0,1.44531-.668,4.14269,4.14269,0,0,0,.44531-2.21484v-4.10937h2.38281V237.151Z" transform="translate(-42.68151 -67.50673)" style="fill: #02bfe7"/>
    <path d="M505.24042,228.25252a2.82485,2.82485,0,0,1,2.42188,1.207,5.54,5.54,0,0,1,.875,3.30859,5.44246,5.44246,0,0,1-.90234,3.35156,3.15089,3.15089,0,0,1-4.87109.07031h-.16406l-.39844.96094H500.381V224.99471h2.38281v2.82813q0,.53906-.09375,1.72656h.09375A2.75755,2.75755,0,0,1,505.24042,228.25252Zm-.76562,1.90625a1.50288,1.50288,0,0,0-1.28906.543,3.12414,3.12414,0,0,0-.42187,1.793v.25781a3.6827,3.6827,0,0,0,.418,2.01563,1.491,1.491,0,0,0,1.32422.60938,1.3298,1.3298,0,0,0,1.168-.67578,3.65708,3.65708,0,0,0,.43359-1.96484,3.46261,3.46261,0,0,0-.4375-1.93359A1.37246,1.37246,0,0,0,504.47479,230.15877Z" transform="translate(-42.68151 -67.50673)" style="fill: #02bfe7"/>
    <path d="M518.72674,237.151h-2.38281V232.0494a2.57124,2.57124,0,0,0-.31641-1.418,1.11216,1.11216,0,0,0-.99609-.47266,1.44246,1.44246,0,0,0-1.32812.67188,4.40345,4.40345,0,0,0-.41406,2.21094V237.151h-2.38281v-8.73437h1.82031l.32031,1.11719h.13281a2.42084,2.42084,0,0,1,1.01563-.94141,3.29576,3.29576,0,0,1,1.52344-.33984,2.74353,2.74353,0,0,1,2.65625,1.28125h.21094a2.35609,2.35609,0,0,1,1.03516-.94531,3.45663,3.45663,0,0,1,1.543-.33594,3.0462,3.0462,0,0,1,2.24609.76172,3.34432,3.34432,0,0,1,.76172,2.44141V237.151h-2.39062V232.0494a2.57124,2.57124,0,0,0-.31641-1.418,1.11216,1.11216,0,0,0-.99609-.47266,1.4857,1.4857,0,0,0-1.30859.625,3.54706,3.54706,0,0,0-.43359,1.98438Z" transform="translate(-42.68151 -67.50673)" style="fill: #02bfe7"/>
    <path d="M526.9162,226.15877q0-1.16455,1.29688-1.16406,1.29639,0,1.29688,1.16406a1.13609,1.13609,0,0,1-.32422.86328,1.36344,1.36344,0,0,1-.97266.30859Q526.91522,227.33065,526.9162,226.15877Zm2.48438,10.99219h-2.38281v-8.73437h2.38281Z" transform="translate(-42.68151 -67.50673)" style="fill: #02bfe7"/>
    <path d="M535.97967,235.40877a5.15069,5.15069,0,0,0,1.5-.27344v1.77344a5.34929,5.34929,0,0,1-2.1875.39844,2.678,2.678,0,0,1-2.082-.72266,3.146,3.146,0,0,1-.65234-2.168v-4.21094h-1.14062v-1.00781l1.3125-.79687.6875-1.84375h1.52344v1.85938h2.44531v1.78906h-2.44531v4.21094a.92829.92829,0,0,0,.28516.75A1.12739,1.12739,0,0,0,535.97967,235.40877Z" transform="translate(-42.68151 -67.50673)" style="fill: #02bfe7"/>
    <path d="M549.74823,237.151l-.46094-1.1875h-.0625a3.52272,3.52272,0,0,1-1.23828,1.05078,4.00174,4.00174,0,0,1-1.66016.293,2.68218,2.68218,0,0,1-1.98047-.71875,2.76154,2.76154,0,0,1-.72266-2.04687,2.30557,2.30557,0,0,1,.97266-2.05078,5.632,5.632,0,0,1,2.93359-.73047l1.51563-.04687v-.38281a1.18778,1.18778,0,0,0-1.35937-1.32812,6.19208,6.19208,0,0,0-2.46094.63281l-.78906-1.60937a7.09681,7.09681,0,0,1,3.34375-.78906,4.16325,4.16325,0,0,1,2.69531.76563,2.82951,2.82951,0,0,1,.9375,2.32813V237.151Zm-.70312-4.04687-.92187.03125a2.94777,2.94777,0,0,0-1.54687.375,1.17746,1.17746,0,0,0-.50781,1.04688q0,1.00781,1.15625,1.00781a1.83364,1.83364,0,0,0,1.32422-.47656,1.67172,1.67172,0,0,0,.49609-1.26562Z" transform="translate(-42.68151 -67.50673)" style="fill: #02bfe7"/>
    <path d="M566.90057,229.29158a3.493,3.493,0,0,1-1.15234,2.82031,4.92841,4.92841,0,0,1-3.27734.97656h-1.03906v4.0625h-2.42187V225.72908h3.64844a4.85274,4.85274,0,0,1,3.16016.89453A3.26362,3.26362,0,0,1,566.90057,229.29158Zm-5.46875,1.8125h.79688a2.65779,2.65779,0,0,0,1.67188-.44141,1.54624,1.54624,0,0,0,.55469-1.28516,1.58513,1.58513,0,0,0-.46484-1.25781,2.18163,2.18163,0,0,0-1.457-.40625h-1.10156Z" transform="translate(-42.68151 -67.50673)" style="fill: #02bfe7"/>
    <path d="M574.81561,237.151l-.46094-1.1875h-.0625a3.52272,3.52272,0,0,1-1.23828,1.05078,4.00174,4.00174,0,0,1-1.66016.293,2.68218,2.68218,0,0,1-1.98047-.71875,2.76154,2.76154,0,0,1-.72266-2.04687,2.30557,2.30557,0,0,1,.97266-2.05078,5.632,5.632,0,0,1,2.93359-.73047l1.51563-.04687v-.38281a1.18778,1.18778,0,0,0-1.35937-1.32812,6.19208,6.19208,0,0,0-2.46094.63281l-.78906-1.60937a7.09681,7.09681,0,0,1,3.34375-.78906,4.16325,4.16325,0,0,1,2.69531.76563,2.82951,2.82951,0,0,1,.9375,2.32813V237.151Zm-.70312-4.04687-.92187.03125a2.94777,2.94777,0,0,0-1.54687.375,1.17746,1.17746,0,0,0-.50781,1.04688q0,1.00781,1.15625,1.00781a1.83364,1.83364,0,0,0,1.32422-.47656,1.67172,1.67172,0,0,0,.49609-1.26562Z" transform="translate(-42.68151 -67.50673)" style="fill: #02bfe7"/>
    <path d="M584.20819,228.25252a3.84919,3.84919,0,0,1,.80469.07031l-.17969,2.23438a2.75118,2.75118,0,0,0-.70312-.07812,2.5252,2.5252,0,0,0-1.77734.58594,2.117,2.117,0,0,0-.63672,1.64063V237.151h-2.38281v-8.73437h1.80469l.35156,1.46875h.11719a3.28578,3.28578,0,0,1,1.09766-1.18359A2.70319,2.70319,0,0,1,584.20819,228.25252Z" transform="translate(-42.68151 -67.50673)" style="fill: #02bfe7"/>
    <path d="M590.67792,235.40877a5.15069,5.15069,0,0,0,1.5-.27344v1.77344a5.34929,5.34929,0,0,1-2.1875.39844,2.678,2.678,0,0,1-2.082-.72266,3.146,3.146,0,0,1-.65234-2.168v-4.21094h-1.14062v-1.00781l1.3125-.79687.6875-1.84375h1.52344v1.85938h2.44531v1.78906h-2.44531v4.21094a.92829.92829,0,0,0,.28516.75A1.12739,1.12739,0,0,0,590.67792,235.40877Z" transform="translate(-42.68151 -67.50673)" style="fill: #02bfe7"/>
    <path d="M594.24237,226.15877q0-1.16455,1.29688-1.16406,1.29639,0,1.29688,1.16406a1.13609,1.13609,0,0,1-.32422.86328,1.36024,1.36024,0,0,1-.97266.30859Q594.24286,227.33065,594.24237,226.15877Zm2.48438,10.99219h-2.38281v-8.73437h2.38281Z" transform="translate(-42.68151 -67.50673)" style="fill: #02bfe7"/>
    <path d="M605.174,237.151l-.46094-1.1875h-.0625a3.53116,3.53116,0,0,1-1.23828,1.05078,4.00487,4.00487,0,0,1-1.66016.293,2.68218,2.68218,0,0,1-1.98047-.71875,2.75762,2.75762,0,0,1-.72266-2.04687,2.30557,2.30557,0,0,1,.97266-2.05078,5.632,5.632,0,0,1,2.93359-.73047l1.51563-.04687v-.38281a1.18778,1.18778,0,0,0-1.35937-1.32812,6.19208,6.19208,0,0,0-2.46094.63281l-.78906-1.60937a7.094,7.094,0,0,1,3.34375-.78906,4.16325,4.16325,0,0,1,2.69531.76563,2.82951,2.82951,0,0,1,.9375,2.32813V237.151Zm-.70312-4.04687-.92187.03125a2.94251,2.94251,0,0,0-1.54687.375,1.17746,1.17746,0,0,0-.50781,1.04688q0,1.00781,1.15625,1.00781a1.83364,1.83364,0,0,0,1.32422-.47656,1.67532,1.67532,0,0,0,.49609-1.26562Z" transform="translate(-42.68151 -67.50673)" style="fill: #02bfe7"/>
    <path d="M612.07342,237.151h-2.38281V224.99471h2.38281Z" transform="translate(-42.68151 -67.50673)" style="fill: #02bfe7"/>
    <path d="M623.27167,230.43221l2.38281-4.70312h2.60938l-3.78906,6.97656V237.151h-2.40625v-4.36719l-3.78906-7.05469h2.625Z" transform="translate(-42.68151 -67.50673)" style="fill: #02bfe7"/>
    <path d="M633.86737,237.30721a4.50733,4.50733,0,0,1-3.29687-1.16406,4.40679,4.40679,0,0,1-1.1875-3.29687,4.84923,4.84923,0,0,1,1.09766-3.39453,3.90643,3.90643,0,0,1,3.03516-1.19922,3.84709,3.84709,0,0,1,2.88281,1.05469,3.99061,3.99061,0,0,1,1.03125,2.91406v1.15625h-5.63281a2.29507,2.29507,0,0,0,.60156,1.58594,2.11841,2.11841,0,0,0,1.57813.57031,6.54929,6.54929,0,0,0,1.49219-.16406,7.49489,7.49489,0,0,0,1.46875-.52344V236.69a5.6194,5.6194,0,0,1-1.33594.46484A8.41868,8.41868,0,0,1,633.86737,237.30721Zm-.33594-7.35937a1.51137,1.51137,0,0,0-1.1875.48047,2.2269,2.2269,0,0,0-.49219,1.36328h3.34375a1.98728,1.98728,0,0,0-.46094-1.36328A1.56114,1.56114,0,0,0,633.53143,229.94783Z" transform="translate(-42.68151 -67.50673)" style="fill: #02bfe7"/>
    <path d="M645.31464,237.151l-.46094-1.1875h-.0625a3.53116,3.53116,0,0,1-1.23828,1.05078,4.00487,4.00487,0,0,1-1.66016.293,2.68218,2.68218,0,0,1-1.98047-.71875,2.75762,2.75762,0,0,1-.72266-2.04687,2.30557,2.30557,0,0,1,.97266-2.05078,5.632,5.632,0,0,1,2.93359-.73047l1.51563-.04687v-.38281a1.18778,1.18778,0,0,0-1.35937-1.32812,6.19208,6.19208,0,0,0-2.46094.63281l-.78906-1.60937a7.094,7.094,0,0,1,3.34375-.78906,4.16325,4.16325,0,0,1,2.69531.76563,2.82951,2.82951,0,0,1,.9375,2.32813V237.151Zm-.70312-4.04687-.92187.03125a2.94251,2.94251,0,0,0-1.54687.375,1.17746,1.17746,0,0,0-.50781,1.04688q0,1.00781,1.15625,1.00781a1.83364,1.83364,0,0,0,1.32422-.47656,1.67532,1.67532,0,0,0,.49609-1.26562Z" transform="translate(-42.68151 -67.50673)" style="fill: #02bfe7"/>
    <path d="M654.70624,228.25252a3.84273,3.84273,0,0,1,.80469.07031l-.17969,2.23438a2.74058,2.74058,0,0,0-.70312-.07812,2.52684,2.52684,0,0,0-1.77734.58594,2.117,2.117,0,0,0-.63672,1.64063V237.151h-2.38281v-8.73437h1.80469l.35156,1.46875h.11719a3.28578,3.28578,0,0,1,1.09766-1.18359A2.70319,2.70319,0,0,1,654.70624,228.25252Z" transform="translate(-42.68151 -67.50673)" style="fill: #02bfe7"/>
  </g>
  <g>
    <path d="M712.426,233.97908a2.95254,2.95254,0,0,1-1.11328,2.4375,4.83731,4.83731,0,0,1-3.09766.89063,7.27933,7.27933,0,0,1-3.23437-.6875v-2.25a13.30148,13.30148,0,0,0,1.957.72656,5.783,5.783,0,0,0,1.46484.21094,2.08344,2.08344,0,0,0,1.22266-.30469,1.04331,1.04331,0,0,0,.42578-.90625,1.00183,1.00183,0,0,0-.1875-.59766,2.08713,2.08713,0,0,0-.55078-.50391,14.37,14.37,0,0,0-1.48047-.77344,7.01409,7.01409,0,0,1-1.57031-.94531,3.52515,3.52515,0,0,1-.83594-1.05469,3.00365,3.00365,0,0,1-.3125-1.40625,2.9495,2.9495,0,0,1,1.02734-2.38281,4.26713,4.26713,0,0,1,2.83984-.86719,6.70608,6.70608,0,0,1,1.69922.21094,11.73288,11.73288,0,0,1,1.69141.59375l-.78125,1.88281a11.38289,11.38289,0,0,0-1.51172-.52344,4.88616,4.88616,0,0,0-1.17578-.14844,1.553,1.553,0,0,0-1.05469.32031,1.056,1.056,0,0,0-.36719.83594,1.0289,1.0289,0,0,0,.14844.55859,1.61574,1.61574,0,0,0,.47266.46094,14.60868,14.60868,0,0,0,1.53516.80078,6.12544,6.12544,0,0,1,2.19531,1.53516A2.99679,2.99679,0,0,1,712.426,233.97908Z" transform="translate(-42.68151 -67.50673)" style="fill: #02bfe7"/>
    <path d="M720.89569,237.151l-.32031-1.11719h-.125a2.51423,2.51423,0,0,1-1.08594.94141,3.70383,3.70383,0,0,1-1.60156.332,3.0476,3.0476,0,0,1-2.32031-.82422,3.31835,3.31835,0,0,1-.78125-2.37109v-5.69531h2.38281v5.10156a2.45435,2.45435,0,0,0,.33594,1.418,1.22143,1.22143,0,0,0,1.07031.47266,1.60876,1.60876,0,0,0,1.44531-.668,4.14269,4.14269,0,0,0,.44531-2.21484v-4.10937h2.38281V237.151Z" transform="translate(-42.68151 -67.50673)" style="fill: #02bfe7"/>
    <path d="M730.48358,228.25252a2.826,2.826,0,0,1,2.42188,1.207,5.54,5.54,0,0,1,.875,3.30859,5.44246,5.44246,0,0,1-.90234,3.35156,3.15089,3.15089,0,0,1-4.87109.07031H727.843l-.39844.96094h-1.82031V224.99471H728.007v2.82813q0,.53906-.09375,1.72656h.09375A2.75647,2.75647,0,0,1,730.48358,228.25252Zm-.76562,1.90625a1.50288,1.50288,0,0,0-1.28906.543,3.10868,3.10868,0,0,0-.42187,1.793v.25781a3.67393,3.67393,0,0,0,.418,2.01563,1.491,1.491,0,0,0,1.32422.60938,1.3298,1.3298,0,0,0,1.168-.67578,3.65708,3.65708,0,0,0,.43359-1.96484,3.47088,3.47088,0,0,0-.4375-1.93359A1.37246,1.37246,0,0,0,729.718,230.15877Z" transform="translate(-42.68151 -67.50673)" style="fill: #02bfe7"/>
    <path d="M743.96991,237.151H741.5871V232.0494a2.57124,2.57124,0,0,0-.31641-1.418,1.11216,1.11216,0,0,0-.99609-.47266,1.44142,1.44142,0,0,0-1.32812.67188,4.40345,4.40345,0,0,0-.41406,2.21094V237.151H736.1496v-8.73437h1.82031l.32031,1.11719h.13281a2.41511,2.41511,0,0,1,1.01563-.94141,3.29576,3.29576,0,0,1,1.52344-.33984,2.74449,2.74449,0,0,1,2.65625,1.28125h.21094a2.35609,2.35609,0,0,1,1.03516-.94531,3.45367,3.45367,0,0,1,1.543-.33594,3.0462,3.0462,0,0,1,2.24609.76172,3.34432,3.34432,0,0,1,.76172,2.44141V237.151H747.0246V232.0494a2.57124,2.57124,0,0,0-.31641-1.418,1.11216,1.11216,0,0,0-.99609-.47266,1.48456,1.48456,0,0,0-1.30859.625,3.54706,3.54706,0,0,0-.43359,1.98438Z" transform="translate(-42.68151 -67.50673)" style="fill: #02bfe7"/>
    <path d="M752.15839,226.15877q0-1.16455,1.29688-1.16406,1.29639,0,1.29688,1.16406a1.13609,1.13609,0,0,1-.32422.86328,1.36024,1.36024,0,0,1-.97266.30859Q752.15887,227.33065,752.15839,226.15877Zm2.48438,10.99219h-2.38281v-8.73437h2.38281Z" transform="translate(-42.68151 -67.50673)" style="fill: #02bfe7"/>
    <path d="M761.22284,235.40877a5.16168,5.16168,0,0,0,1.5-.27344v1.77344a5.34929,5.34929,0,0,1-2.1875.39844,2.678,2.678,0,0,1-2.082-.72266,3.14112,3.14112,0,0,1-.65234-2.168v-4.21094h-1.14062v-1.00781l1.3125-.79687.6875-1.84375h1.52344v1.85938h2.44531v1.78906h-2.44531v4.21094a.92829.92829,0,0,0,.28516.75A1.12562,1.12562,0,0,0,761.22284,235.40877Z" transform="translate(-42.68151 -67.50673)" style="fill: #02bfe7"/>
    <path d="M774.99139,237.151l-.46094-1.1875h-.0625a3.53116,3.53116,0,0,1-1.23828,1.05078,4.00487,4.00487,0,0,1-1.66016.293,2.68218,2.68218,0,0,1-1.98047-.71875,2.75762,2.75762,0,0,1-.72266-2.04687,2.30557,2.30557,0,0,1,.97266-2.05078,5.632,5.632,0,0,1,2.93359-.73047l1.51563-.04687v-.38281a1.18778,1.18778,0,0,0-1.35937-1.32812,6.19208,6.19208,0,0,0-2.46094.63281l-.78906-1.60937a7.094,7.094,0,0,1,3.34375-.78906,4.16325,4.16325,0,0,1,2.69531.76563,2.82951,2.82951,0,0,1,.9375,2.32813V237.151Zm-.70312-4.04687-.92187.03125a2.94251,2.94251,0,0,0-1.54687.375,1.17746,1.17746,0,0,0-.50781,1.04688q0,1.00781,1.15625,1.00781a1.83364,1.83364,0,0,0,1.32422-.47656,1.67532,1.67532,0,0,0,.49609-1.26562Z" transform="translate(-42.68151 -67.50673)" style="fill: #02bfe7"/>
    <path d="M786.63495,237.151h-2.38281V225.72908H790.799v1.98438h-4.16406v2.94531h3.875v1.97656h-3.875Z" transform="translate(-42.68151 -67.50673)" style="fill: #02bfe7"/>
    <path d="M799.43378,237.151l-.32031-1.11719h-.125a2.5198,2.5198,0,0,1-1.08594.94141,3.70383,3.70383,0,0,1-1.60156.332,3.0476,3.0476,0,0,1-2.32031-.82422,3.314,3.314,0,0,1-.78125-2.37109v-5.69531h2.38281v5.10156a2.44678,2.44678,0,0,0,.33594,1.418,1.22028,1.22028,0,0,0,1.07031.47266,1.60986,1.60986,0,0,0,1.44531-.668,4.14269,4.14269,0,0,0,.44531-2.21484v-4.10937h2.38281V237.151Z" transform="translate(-42.68151 -67.50673)" style="fill: #02bfe7"/>
    <path d="M806.54413,237.151h-2.38281V224.99471h2.38281Z" transform="translate(-42.68151 -67.50673)" style="fill: #02bfe7"/>
    <path d="M811.82733,237.151h-2.38281V224.99471h2.38281Z" transform="translate(-42.68151 -67.50673)" style="fill: #02bfe7"/>
    <path d="M823.02557,230.43221l2.38281-4.70312h2.60938l-3.78906,6.97656V237.151h-2.40625v-4.36719l-3.78906-7.05469h2.625Z" transform="translate(-42.68151 -67.50673)" style="fill: #02bfe7"/>
    <path d="M833.62128,237.30721a4.50578,4.50578,0,0,1-3.29687-1.16406,4.40679,4.40679,0,0,1-1.1875-3.29687,4.84464,4.84464,0,0,1,1.09766-3.39453,3.90643,3.90643,0,0,1,3.03516-1.19922,3.84709,3.84709,0,0,1,2.88281,1.05469,3.99061,3.99061,0,0,1,1.03125,2.91406v1.15625H831.551a2.2906,2.2906,0,0,0,.60156,1.58594,2.1169,2.1169,0,0,0,1.57813.57031,6.55547,6.55547,0,0,0,1.49219-.16406,7.49489,7.49489,0,0,0,1.46875-.52344V236.69a5.6194,5.6194,0,0,1-1.33594.46484A8.43189,8.43189,0,0,1,833.62128,237.30721Zm-.33594-7.35937a1.51,1.51,0,0,0-1.1875.48047,2.215,2.215,0,0,0-.49219,1.36328h3.34375a1.98728,1.98728,0,0,0-.46094-1.36328A1.56114,1.56114,0,0,0,833.28534,229.94783Z" transform="translate(-42.68151 -67.50673)" style="fill: #02bfe7"/>
    <path d="M845.06757,237.151l-.46094-1.1875h-.0625a3.52272,3.52272,0,0,1-1.23828,1.05078,4.00174,4.00174,0,0,1-1.66016.293,2.68218,2.68218,0,0,1-1.98047-.71875,2.76154,2.76154,0,0,1-.72266-2.04687,2.30557,2.30557,0,0,1,.97266-2.05078,5.632,5.632,0,0,1,2.93359-.73047l1.51563-.04687v-.38281a1.18778,1.18778,0,0,0-1.35937-1.32812,6.19208,6.19208,0,0,0-2.46094.63281l-.78906-1.60937a7.09681,7.09681,0,0,1,3.34375-.78906,4.16325,4.16325,0,0,1,2.69531.76563,2.82951,2.82951,0,0,1,.9375,2.32813V237.151Zm-.70312-4.04687-.92187.03125a2.94777,2.94777,0,0,0-1.54687.375,1.17746,1.17746,0,0,0-.50781,1.04688q0,1.00781,1.15625,1.00781a1.83364,1.83364,0,0,0,1.32422-.47656,1.67172,1.67172,0,0,0,.49609-1.26562Z" transform="translate(-42.68151 -67.50673)" style="fill: #02bfe7"/>
    <path d="M854.46014,228.25252a3.84919,3.84919,0,0,1,.80469.07031l-.17969,2.23438a2.75119,2.75119,0,0,0-.70312-.07812,2.5252,2.5252,0,0,0-1.77734.58594,2.117,2.117,0,0,0-.63672,1.64063V237.151h-2.38281v-8.73437h1.80469l.35156,1.46875h.11719a3.28578,3.28578,0,0,1,1.09766-1.18359A2.70319,2.70319,0,0,1,854.46014,228.25252Z" transform="translate(-42.68151 -67.50673)" style="fill: #02bfe7"/>
  </g>
  <g>
    <path d="M542.72382,175.60408H532.33124v-5.88086h10.39258V159.24862h5.88184v10.47461h10.39355v5.88086H548.60565v10.33984h-5.88184Z" transform="translate(-42.68151 -67.50673)" style="fill: #fff"/>
    <path d="M576.51776,167.00057a11.10775,11.10775,0,0,1-1.34473,6.05566,4.4222,4.4222,0,0,1-3.94629,2.04785,4.315,4.315,0,0,1-3.82324-2.0918,11.02932,11.02932,0,0,1-1.3623-6.01172,11.164,11.164,0,0,1,1.30957-6.01172,4.32074,4.32074,0,0,1,3.876-2.02148,4.41275,4.41275,0,0,1,3.91992,2.0918A10.81769,10.81769,0,0,1,576.51776,167.00057Zm-8.05078,0a11.78526,11.78526,0,0,0,.65039,4.48242,2.18919,2.18919,0,0,0,2.10938,1.49414q2.88281,0,2.88281-5.97656,0-5.94141-2.88281-5.94141a2.18809,2.18809,0,0,0-2.10937,1.47656A11.64292,11.64292,0,0,0,568.467,167.00057Zm19.002-7.66406-14.25586,25.69922h-2.584l14.25586-25.69922Zm4.53516,17.96484a11.06793,11.06793,0,0,1-1.34473,6.03809,4.4222,4.4222,0,0,1-3.94629,2.04785,4.30387,4.30387,0,0,1-3.84082-2.0918,14.23965,14.23965,0,0,1-.03516-12.00586,4.32074,4.32074,0,0,1,3.876-2.02148,4.44423,4.44423,0,0,1,3.89355,2.06543A10.63274,10.63274,0,0,1,592.00409,177.30135Zm-8.06836,0a11.775,11.775,0,0,0,.65039,4.49121,2.19978,2.19978,0,0,0,2.127,1.48535,2.29741,2.29741,0,0,0,2.17969-1.46777,10.95436,10.95436,0,0,0,.70313-4.50879,10.71093,10.71093,0,0,0-.70312-4.45605,2.2979,2.2979,0,0,0-2.17969-1.4502,2.19861,2.19861,0,0,0-2.127,1.4502A11.49176,11.49176,0,0,0,583.93573,177.30135Z" transform="translate(-42.68151 -67.50673)" style="fill: #fff"/>
  </g>
  <path d="M731.67084,92.12459a61.87555,61.87555,0,1,0,88.05286,0Z" transform="translate(-42.68151 -67.50673)" style="fill: #02bfe7"/>
  <circle cx="518.52647" cy="68.08334" r="67.08334" style="fill: none;stroke: #02bfe7;stroke-miterlimit: 10;stroke-width: 2px"/>
  <circle cx="733.01575" cy="68.08334" r="67.08334" style="fill: none;stroke: #02bfe7;stroke-miterlimit: 10;stroke-width: 2px"/>
  <g>
    <path d="M756.21307,174.60408H745.82049v-5.88086h10.39258V158.24862h5.88184v10.47461h10.39355v5.88086H762.09491v10.33984h-5.88184Z" transform="translate(-42.68151 -67.50673)" style="fill: #fff"/>
    <path d="M790.007,166.00057a11.10775,11.10775,0,0,1-1.34473,6.05566,4.4222,4.4222,0,0,1-3.94629,2.04785,4.315,4.315,0,0,1-3.82324-2.0918,11.02932,11.02932,0,0,1-1.3623-6.01172,11.164,11.164,0,0,1,1.30957-6.01172,4.32074,4.32074,0,0,1,3.876-2.02148,4.41275,4.41275,0,0,1,3.91992,2.0918A10.81769,10.81769,0,0,1,790.007,166.00057Zm-8.05078,0a11.78526,11.78526,0,0,0,.65039,4.48242,2.18919,2.18919,0,0,0,2.10938,1.49414q2.88281,0,2.88281-5.97656,0-5.94141-2.88281-5.94141a2.18809,2.18809,0,0,0-2.10937,1.47656A11.64292,11.64292,0,0,0,781.95624,166.00057Zm19.002-7.66406-14.25586,25.69922h-2.584l14.25586-25.69922Zm4.53516,17.96484a11.06793,11.06793,0,0,1-1.34473,6.03809,4.4222,4.4222,0,0,1-3.94629,2.04785,4.30387,4.30387,0,0,1-3.84082-2.0918,14.23965,14.23965,0,0,1-.03516-12.00586,4.32074,4.32074,0,0,1,3.876-2.02148,4.44423,4.44423,0,0,1,3.89355,2.06543A10.63274,10.63274,0,0,1,805.49335,176.30135Zm-8.06836,0a11.775,11.775,0,0,0,.65039,4.49121,2.19978,2.19978,0,0,0,2.127,1.48535,2.29741,2.29741,0,0,0,2.17969-1.46777,10.95436,10.95436,0,0,0,.70313-4.50879,10.71093,10.71093,0,0,0-.70312-4.45605,2.2979,2.2979,0,0,0-2.17969-1.4502,2.19861,2.19861,0,0,0-2.127,1.4502A11.49176,11.49176,0,0,0,797.425,176.30135Z" transform="translate(-42.68151 -67.50673)" style="fill: #fff"/>
  </g>
  <line x1="370" y1="68.61892" x2="450.99595" y2="68.61892" style="fill: none;stroke: #02bfe7;stroke-miterlimit: 10;stroke-width: 2px"/>
  <line x1="153.75527" y1="68.61892" x2="234.75122" y2="68.61892" style="fill: none;stroke: #02bfe7;stroke-miterlimit: 10;stroke-width: 2px"/>
  <line x1="800" y1="68.61892" x2="817.96745" y2="68.61892" style="fill: none;stroke: #02bfe7;stroke-miterlimit: 10;stroke-width: 2px"/>
  <line y1="68.61892" x2="17.96745" y2="68.61892" style="fill: none;stroke: #02bfe7;stroke-miterlimit: 10;stroke-width: 2px"/>
  <line x1="584.48928" y1="68.61892" x2="665.48523" y2="68.61892" style="fill: none;stroke: #02bfe7;stroke-miterlimit: 10;stroke-width: 2px"/>
  <circle cx="302.0372" cy="68.08334" r="67.08334" style="fill: none;stroke: #02bfe7;stroke-miterlimit: 10;stroke-width: 2px"/>
  <path d="M355.90936,176.04842q0,7.85449-2.57422,11.62793-2.57373,3.77344-7.92578,3.77344a8.82882,8.82882,0,0,1-7.82422-3.89648q-2.63525-3.89648-2.63477-11.50488,0-7.93652,2.56348-11.7002,2.56348-3.76172,7.89551-3.7627a8.84939,8.84939,0,0,1,7.84375,3.9375Q355.90887,168.46053,355.90936,176.04842Zm-14.66309,0q0,5.5166.9541,7.90527a3.30041,3.30041,0,0,0,3.209,2.38965,3.3362,3.3362,0,0,0,3.19922-2.41992q.98438-2.41992.98438-7.875,0-5.5166-.99414-7.92676a3.32228,3.32228,0,0,0-6.38867,0Q341.24628,170.5328,341.24628,176.04842Z" transform="translate(-42.68151 -67.50673)" style="fill: #fff"/>
  <line x1="307.71882" y1="97.20016" x2="297.24605" y2="119.63404" style="fill: none;stroke: #fff;stroke-miterlimit: 10"/>
  <path d="M70.1142,153.12459a61.87608,61.87608,0,0,0,118.67889,0Z" transform="translate(-42.68151 -67.50673)" style="fill: #cd2026"/>
  <circle cx="86.28286" cy="68.08334" r="67.08334" style="fill: none;stroke: #02bfe7;stroke-miterlimit: 10;stroke-width: 2px"/>
  <g>
    <path d="M103.3327,178.32674V172.15h23.0957v6.17676Z" transform="translate(-42.68151 -67.50673)" style="fill: #fff"/>
    <path d="M143.78583,167.00057a11.10775,11.10775,0,0,1-1.34473,6.05566,4.4222,4.4222,0,0,1-3.94629,2.04785,4.315,4.315,0,0,1-3.82324-2.0918,11.02932,11.02932,0,0,1-1.3623-6.01172,11.164,11.164,0,0,1,1.30957-6.01172,4.32074,4.32074,0,0,1,3.876-2.02148,4.41275,4.41275,0,0,1,3.91992,2.0918A10.81769,10.81769,0,0,1,143.78583,167.00057Zm-8.05078,0a11.78526,11.78526,0,0,0,.65039,4.48242,2.18919,2.18919,0,0,0,2.10938,1.49414q2.88281,0,2.88281-5.97656,0-5.94141-2.88281-5.94141a2.18809,2.18809,0,0,0-2.10937,1.47656A11.64292,11.64292,0,0,0,135.735,167.00057Zm19.002-7.66406-14.25586,25.69922h-2.584L152.153,159.33651Zm4.53516,17.96484a11.06793,11.06793,0,0,1-1.34473,6.03809,4.4222,4.4222,0,0,1-3.94629,2.04785,4.30387,4.30387,0,0,1-3.84082-2.0918,14.23965,14.23965,0,0,1-.03516-12.00586,4.32074,4.32074,0,0,1,3.876-2.02148,4.44423,4.44423,0,0,1,3.89355,2.06543A10.63274,10.63274,0,0,1,159.27216,177.30135Zm-8.06836,0a11.775,11.775,0,0,0,.65039,4.49121,2.19978,2.19978,0,0,0,2.127,1.48535,2.29741,2.29741,0,0,0,2.17969-1.46777,10.95436,10.95436,0,0,0,.70313-4.50879,10.71093,10.71093,0,0,0-.70312-4.45605,2.2979,2.2979,0,0,0-2.17969-1.4502,2.19861,2.19861,0,0,0-2.127,1.4502A11.49176,11.49176,0,0,0,151.2038,177.30135Z" transform="translate(-42.68151 -67.50673)" style="fill: #fff"/>
  </g>
</svg>
